<?xml version="1.0" encoding="utf-8"?>
<!-- Generator: Adobe Illustrator 17.0.0, SVG Export Plug-In . SVG Version: 6.00 Build 0)  -->
<svg version="1.2" baseProfile="tiny" id="Layer_1" xmlns="http://www.w3.org/2000/svg" xmlns:xlink="http://www.w3.org/1999/xlink"
	 x="0px" y="0px" width="818.448px" height="417.228px" viewBox="0 0 818.448 417.228" overflow="scroll" xml:space="preserve">
<g>
	<g>
		<path fill="#FFFFFF" d="M283.366,235.947c0.477,1.163,0.743,2.437,0.743,3.779c0,5.366-4.39,9.878-9.878,9.878h-15.122v-19.757
			h15.122c0.536,0,1.058,0.054,1.57,0.135l22.056-17.249c-6.62-5.87-14.556-8.861-23.627-8.861h-19.6l-21.498,27.79v55.748h25.976
			v-11.951h15.122c9.878,0,18.415-3.537,25.366-10.489c6.951-6.951,10.488-15.366,10.488-25.244c0-7.461-2.021-14.155-6.003-19.98
			L283.366,235.947z"/>
		<polygon fill="#FFFFFF" points="233.132,203.872 233.132,216.366 242.798,203.872 		"/>
		<path fill="#FFFFFF" d="M368.856,200.945c-12.317,0-22.805,4.39-31.586,13.171c-8.659,8.659-13.049,19.146-13.049,31.464
			c0,12.318,4.39,22.805,13.049,31.586c8.781,8.659,19.269,13.049,31.586,13.049s22.805-4.39,31.464-13.049
			c0.583-0.583,1.144-1.175,1.688-1.773l-22.764-14.189c-3.042,2.103-6.504,3.157-10.387,3.157c-5.244,0-9.634-1.83-13.293-5.488
			c-3.659-3.659-5.488-8.049-5.488-13.293c0-5.122,1.829-9.512,5.488-13.171c3.659-3.659,8.049-5.488,13.293-5.488
			c5.122,0,9.512,1.83,13.171,5.488c3.781,3.659,5.61,8.049,5.61,13.171c0,3.157-0.668,6.003-2.021,8.568l21.985,13.703
			c3.92-6.633,5.89-14.041,5.89-22.271c0-12.318-4.39-22.805-13.171-31.464C391.662,205.335,381.174,200.945,368.856,200.945z"/>
		<polygon fill="#FFFFFF" points="476.411,255.923 495.743,287.41 502.266,287.41 502.266,242.897 476.411,242.897 		"/>
		<path fill="#FFFFFF" d="M492.388,206.921c-6.708-3.902-13.903-5.854-21.586-5.854c-11.829,0-22.073,4.269-30.488,12.683
			c-8.414,8.415-12.683,18.659-12.683,30.489c0,11.829,4.269,22.073,12.683,30.488c8.415,8.415,18.659,12.683,30.488,12.683h13.96
			l-15.939-25.961c-3.905-0.416-7.286-2.084-10.216-5.014c-3.415-3.415-5.122-7.439-5.122-12.195c0-4.756,1.707-8.903,5.122-12.195
			c3.415-3.293,7.439-5,12.195-5c6.342,0,11.951,3.292,15.001,8.658l22.439-12.926C504.461,216.067,499.095,210.823,492.388,206.921
			z"/>
		<path fill="#FFFFFF" d="M592.381,214.116c-8.52-8.639-18.814-13.019-30.875-13.158l-45.204,45.503
			c0.206,11.935,4.579,22.135,13.029,30.705c5.096,5.025,10.771,8.603,17.042,10.729l13.968-23.546
			c-4.99-0.131-9.194-1.952-12.717-5.475c-3.659-3.659-5.488-8.049-5.488-13.293c0-5.122,1.829-9.512,5.488-13.171
			c3.659-3.659,8.049-5.488,13.293-5.488c5.122,0,9.512,1.83,13.171,5.488c3.78,3.659,5.61,8.049,5.61,13.171
			c0,4.754-1.509,8.804-4.607,12.246l-19.067,32.141c1.599,0.16,3.228,0.248,4.893,0.248c12.317,0,22.805-4.39,31.464-13.049
			c8.781-8.781,13.171-19.268,13.171-31.586C605.552,233.262,601.162,222.775,592.381,214.116z"/>
		<path fill="#FFFFFF" d="M529.331,214.116c-4.954,4.954-8.504,10.51-10.641,16.662l27.148-27.327
			C539.779,205.61,534.283,209.164,529.331,214.116z"/>
	</g>
	<g>
		<g>
			<polygon fill="#BBEC68" points="453.894,300.152 431.062,285.921 431.062,285.921 361.8,242.749 361.8,242.749 354.729,238.343 
				353.452,241.682 379.059,257.642 379.059,257.642 406.419,274.696 406.419,274.696 454.412,304.611 468.643,290.285 
				464.099,289.88 			"/>
			<polygon fill="#BBEC68" points="398.862,141.908 440.438,209.627 443.167,207.364 399.797,136.723 323.141,196.672 
				307.5,208.904 263.715,181.613 256.35,191.133 256.35,191.133 205.966,256.262 205.966,256.262 134.474,348.676 230.207,273.807 
				230.207,269.351 154.433,328.612 208.742,258.409 208.742,258.409 259.126,193.281 259.126,193.281 264.55,186.269 
				304.557,211.205 302.307,212.965 276.503,233.146 276.503,233.146 262.033,244.462 262.033,246.68 264.894,246.68 
				272.689,240.584 304.634,215.601 304.634,215.601 307.728,213.182 326.07,224.614 327.753,221.528 310.67,210.88 			"/>
			<polygon fill="#BBEC68" points="565.93,260.659 565.93,260.659 547.718,291.359 547.717,291.359 521.681,335.248 
				511.843,319.224 511.843,319.224 494.107,290.334 494.106,290.334 473.487,256.749 473.487,256.749 460.008,234.795 
				457.825,237.946 462.251,245.156 470.52,258.625 470.52,258.625 489.988,290.334 489.988,290.334 521.733,342.04 
				551.288,292.219 551.288,292.219 576.044,250.488 576.773,245.58 576.539,242.775 			"/>
			<polygon fill="#BBEC68" points="574.354,178.897 506.997,246.698 506.997,246.699 505.19,248.517 505.19,253.497 
				513.365,245.268 513.365,245.268 578.312,179.892 578.312,179.892 666.512,91.109 594.646,212.251 597.141,214.926 
				683.974,68.552 			"/>
		</g>
		<g>
			<polygon fill="#BBEC68" points="453.894,300.152 431.062,285.921 431.062,285.921 361.8,242.749 361.8,242.749 354.729,238.343 
				353.452,241.682 379.059,257.642 379.059,257.642 406.419,274.696 406.419,274.696 454.412,304.611 468.643,290.285 
				464.099,289.88 			"/>
			<polygon fill="#BBEC68" points="398.862,141.908 440.438,209.627 443.167,207.364 399.797,136.723 323.141,196.672 
				307.5,208.904 263.715,181.613 256.35,191.133 256.35,191.133 205.966,256.262 205.966,256.262 134.474,348.676 230.207,273.807 
				230.207,269.351 154.433,328.612 208.742,258.409 208.742,258.409 259.126,193.281 259.126,193.281 264.55,186.269 
				304.557,211.205 302.307,212.965 276.503,233.146 276.503,233.146 262.033,244.462 262.033,246.68 264.894,246.68 
				272.689,240.584 304.634,215.601 304.634,215.601 307.728,213.182 326.07,224.614 327.753,221.528 310.67,210.88 			"/>
			<polygon fill="#BBEC68" points="565.93,260.659 565.93,260.659 547.718,291.359 547.717,291.359 521.681,335.248 
				511.843,319.224 511.843,319.224 494.107,290.334 494.106,290.334 473.487,256.749 473.487,256.749 460.008,234.795 
				457.825,237.946 462.251,245.156 470.52,258.625 470.52,258.625 489.988,290.334 489.988,290.334 521.733,342.04 
				551.288,292.219 551.288,292.219 576.044,250.488 576.773,245.58 576.539,242.775 			"/>
			<polygon fill="#BBEC68" points="574.354,178.897 506.997,246.698 506.997,246.699 505.19,248.517 505.19,253.497 
				513.365,245.268 513.365,245.268 578.312,179.892 578.312,179.892 666.512,91.109 594.646,212.251 597.141,214.926 
				683.974,68.552 			"/>
		</g>
	</g>
</g>
</svg>
